<svg  xmlns="http://www.w3.org/2000/svg" height="800" width="1200" xml:space="preserve" y="0" x="0" id="Layer_1" version="1.1" viewBox="-60.702375 -21.091075 526.08725 126.54645">
   <style id="style14216" type="text/css">.st0{fill:#a9a9a9}</style>
   <g transform="translate(-7.1175 -4.8232)" id="g14243">
      <g id="g14230">
         <g id="g14228">
            <path id="path14218" d="M96.5 81.4l30.8-68.3c.3-.6 1.2-1.1 1.7-1.1h1c.5 0 1.4.5 1.7 1.1l30.6 68.3c.6 1.3-.2 2.6-1.7 2.6h-6.3c-1.2 0-1.9-.6-2.3-1.5l-6.2-13.9H113c-2 4.7-4.1 9.2-6.1 13.9-.3.7-1.1 1.5-2.3 1.5h-6.3c-1.6.1-2.4-1.3-1.8-2.6zm45.4-21.5l-12.3-27.8h-.5l-12.2 27.8z" class="st0"/>
            <path id="path14220" d="M176.9 14.1c0-1 .8-2 1.9-2h27.3c12 0 21.9 9.8 21.9 22 0 9.5-6.1 17.3-14.8 20.9l13.7 26.1c.7 1.3 0 3-1.7 3h-7.8c-.8 0-1.4-.5-1.6-.9L202.5 56h-15.2v26.2c0 1-.9 2-1.9 2h-6.5c-1.1 0-1.9-.9-1.9-2V14.1zm28.4 33c6.5 0 12.2-5.7 12.2-12.7 0-6.7-5.7-12.2-12.2-12.2h-17.9v25h17.9z" class="st0"/>
            <path id="path14222" d="M241.5 14.1c0-1 .8-2 1.8-2h23.1c19.4 0 35.2 16.1 35.2 35.8 0 19.9-15.9 36-35.2 36h-23.1c-1 0-1.8-.9-1.8-2zM265 74.2c14.8 0 25.5-11.1 25.5-26.3 0-15.1-10.7-26.1-25.5-26.1h-13.2v52.4z" class="st0"/>
            <path id="path14224" d="M315.8 14.1c0-1 .9-2 1.9-2h6.6c1 0 1.9.9 1.9 2v68.1c0 1-.9 2-1.9 2h-6.6c-1 0-1.9-.9-1.9-2z" class="st0"/>
            <path id="path14226" d="M376.2 12.1c19.8 0 35.6 16.1 35.6 36 0 20-15.8 35.8-35.6 35.8S340.7 68 340.7 48.1c0-20 15.7-36 35.5-36zm0 61.8c14.2 0 25.7-11.6 25.7-25.9 0-14.2-11.6-26.1-25.7-26.1S350.6 33.8 350.6 48c0 14.4 11.6 25.9 25.6 25.9z" class="st0"/>
         </g>
      </g>
      <g id="g14241">
         <g id="g14239">
            <radialGradient gradientUnits="userSpaceOnUse" r="41.1971" cy="47.0011" cx="47.2961" id="SVGID_1_">
               <stop id="stop14232" offset="0" stop-color="#46a547"/>
               <stop id="stop14234" offset="1" stop-color="#46a547"/>
            </radialGradient>
            <path id="path14237" d="M86.3 35.3C81 13.8 59.2.7 37.6 6 16 11.3 3 33.1 8.3 54.7 13.6 76.2 35.4 89.3 57 84c.4-.1.8-.3 1.2-.3 1.5-.2 3 0 4.3.2 5.2 1 11 4.1 11.9 5.2.9 1 11-6.9 11-6.9s-5.2-5.1-8.3-6.7c-.6-.3-1.4-.7-2.4-1C85 64.9 89.9 50.1 86.3 35.3zM53.9 71.5c-14.7 3.6-29.5-5.3-33.1-20-3.6-14.7 5.3-29.5 20-33.1 14.7-3.6 29.5 5.3 33.1 20 3.6 14.7-5.4 29.5-20 33.1z" fill="#46a547"/>
         </g>
      </g>
   </g>
</svg>